<?xml version="1.0" encoding="utf-8"?>
<!-- Generator: Adobe Illustrator 18.1.1, SVG Export Plug-In . SVG Version: 6.00 Build 0)  -->
<!DOCTYPE svg PUBLIC "-//W3C//DTD SVG 1.1//EN" "http://www.w3.org/Graphics/SVG/1.1/DTD/svg11.dtd">
<svg version="1.1" id="Layer_1" xmlns="http://www.w3.org/2000/svg" xmlns:xlink="http://www.w3.org/1999/xlink" x="0px" y="0px"
	 width="600px" height="800px" viewBox="0 0 600 800" style="enable-background:new 0 0 600 800;" xml:space="preserve">
<style type="text/css">
	.st0{stroke:#000000;stroke-miterlimit:10;}
</style>
<g>
	<path class="st0" d="M462.1,335.4c4.5,17,6.9,35.2,6.9,54.1c0,2.2-0.1,4.4-0.1,6.5l22.1,8.6l18.4-15.2l14,16.6L496,428.8
		l-28.7-11.6c-3.3,25.3-11,48.8-22,69.3l3.9-5.3l21.5,12.3l20.4-12.3l11.4,18.4L472,518l-33.7-19.7c-26.4,40.9-67.2,67.2-113.1,67.2
		c-45.8,0-86.5-26.2-112.8-66.9L179.2,518l-30.6-18.5l11.4-18.4l20.4,12.3l21.5-12.3l1.5,2.1c-10.1-19.6-17.2-41.8-20.3-65.7
		l-27.8,11.2l-27.5-22.7l14-16.6l18.4,15.2l21.2-8.3c-0.1-2.3-0.1-4.6-0.1-6.9c0-18.9,2.5-37.1,7-54.1l-35.8-1.3l-15.6-31.9
		l19.7-9.4l10.4,21.3l24.8,1.2l0.4,7.2c14.9-44.1,43.9-79.1,80.2-96.7c0.7-13.5,11.9-24.3,25.7-24.3h60.2
		c14.3,0,25.9,11.5,25.9,25.6c0,0.6-0.1,1.2-0.2,1.8c34.1,18.8,61.2,53.3,75,96.1l0.6-9.6l24.8-1.2l10.4-21.3l19.7,9.4l-15.6,31.9
		L462.1,335.4z"/>
	<polygon class="st0" points="398,178.7 395.2,186.3 390.8,188.3 381.6,190.8 374,195.4 363.1,201.4 363.1,195.4 375.3,186.8 
		384.2,184.1 392,178.7 396.5,169.8 405.2,166.8 402.8,175.2 	"/>
	<polygon class="st0" points="274.8,190.8 265.6,188.3 261.3,186.3 258.4,178.7 253.6,175.2 251.2,166.8 259.9,169.8 264.4,178.7 
		272.3,184.1 281.1,186.8 293.3,195.4 293.3,201.4 282.5,195.4 	"/>
</g>
<g>
</g>
<g>
</g>
<g>
</g>
<g>
</g>
<g>
</g>
<g>
</g>
<g>
</g>
<g>
</g>
<g>
</g>
<g>
</g>
<g>
</g>
<g>
</g>
<g>
</g>
<g>
</g>
<g>
</g>
</svg>
