<svg xmlns="http://www.w3.org/2000/svg" width="600" height="800" viewBox="0 0 600 800"><style type="text/css">.st0{fill:#512200;stroke:#512200;stroke-miterlimit:10;}</style><path class="st0" d="M462.1 335.4c4.5 17 6.9 35.2 6.9 54.1 0 2.2-.1 4.4-.1 6.5l22.1 8.6 18.4-15.2 14 16.6-27.4 22.8-28.7-11.6c-3.3 25.3-11 48.8-22 69.3l3.9-5.3 21.5 12.3 20.4-12.3 11.4 18.4-30.5 18.4-33.7-19.7c-26.4 40.9-67.2 67.2-113.1 67.2-45.8 0-86.5-26.2-112.8-66.9l-33.2 19.4-30.6-18.5 11.4-18.4 20.4 12.3 21.5-12.3 1.5 2.1c-10.1-19.6-17.2-41.8-20.3-65.7l-27.8 11.2-27.5-22.7 14-16.6 18.4 15.2 21.2-8.3c-.1-2.3-.1-4.6-.1-6.9 0-18.9 2.5-37.1 7-54.1l-35.8-1.3-15.6-31.9 19.7-9.4 10.4 21.3 24.8 1.2.4 7.2c14.9-44.1 43.9-79.1 80.2-96.7.7-13.5 11.9-24.3 25.7-24.3h60.2c14.3 0 25.9 11.5 25.9 25.6 0 .6-.1 1.2-.2 1.8 34.1 18.8 61.2 53.3 75 96.1l.6-9.6 24.8-1.2 10.4-21.3 19.7 9.4-15.6 31.9-36.8 1.3zM398 178.7l-2.8 7.6-4.4 2-9.2 2.5-7.6 4.6-10.9 6v-6l12.2-8.6 8.9-2.7 7.8-5.4 4.5-8.9 8.7-3-2.4 8.4zM274.8 190.8l-9.2-2.5-4.3-2-2.9-7.6-4.8-3.5-2.4-8.4 8.7 3 4.5 8.9 7.9 5.4 8.8 2.7 12.2 8.6v6l-10.8-6z"/></svg>